HIERARCHY
ROOT SpineBase
{
  OFFSET 0.000000 0.000000 0.000000
  CHANNELS 6 Xposition Yposition Zposition Zrotation Xrotation Yrotation
  JOINT SpineMid
  {
    OFFSET 0.000000 21.363265 0.000000
    CHANNELS 3 Zrotation Xrotation Yrotation
    JOINT SpineShoulder
    {
      OFFSET -0.224388 15.526735 -0.308134
      CHANNELS 3 Zrotation Xrotation Yrotation
      JOINT Neck
      {
        OFFSET -0.077579 5.177437 -0.298928
        CHANNELS 3 Zrotation Xrotation Yrotation
        JOINT Head
        {
          OFFSET 5.221211 6.158641 7.322547
          CHANNELS 3 Zrotation Xrotation Yrotation
          End Site
          {
            OFFSET 0 0 0
          }
        }
      }
      JOINT ShoulderLeft
      {
        OFFSET -5.009985 -6.117820 -4.594106
        CHANNELS 3 Zrotation Xrotation Yrotation
        JOINT ElbowLeft
        {
          OFFSET -6.039834 -15.266842 -5.685877
          CHANNELS 3 Zrotation Xrotation Yrotation
          JOINT WristLeft
          {
            OFFSET 8.223928 -14.096477 -6.112420
            CHANNELS 3 Zrotation Xrotation Yrotation
            JOINT HandLeft
            {
              OFFSET 3.335846 -4.545807 0.087786
              CHANNELS 3 Zrotation Xrotation Yrotation
              JOINT HandTipLeft
              {
                OFFSET -0.186812 -4.655840 -2.134905
                CHANNELS 3 Zrotation Xrotation Yrotation
                End Site
                {
                  OFFSET 0 0 0
                }
              }
              JOINT ThumbLeft
              {
                OFFSET -0.525150 -4.307616 -3.565203
                CHANNELS 3 Zrotation Xrotation Yrotation
                End Site
                {
                  OFFSET 0 0 0
                }
              }
            }
          }
        }
      }
      JOINT ShoulderRight
      {
        OFFSET 8.367617 3.184236 -1.096519
        CHANNELS 3 Zrotation Xrotation Yrotation
        JOINT ElbowRight
        {
          OFFSET 3.245147 -16.523682 -3.900343
          CHANNELS 3 Zrotation Xrotation Yrotation
          JOINT WristRight
          {
            OFFSET -16.188001 -6.194194 -0.919837
            CHANNELS 3 Zrotation Xrotation Yrotation
            JOINT HandRight
            {
              OFFSET -5.395877 -2.172776 -0.073213
              CHANNELS 3 Zrotation Xrotation Yrotation
              JOINT HandTipRight
              {
                OFFSET -0.300074 -4.499042 -1.545308
                CHANNELS 3 Zrotation Xrotation Yrotation
                End Site
                {
                  OFFSET 0 0 0
                }
              }
              JOINT ThumbRight
              {
                OFFSET -1.551618 2.490624 -1.047420
                CHANNELS 3 Zrotation Xrotation Yrotation
                End Site
                {
                  OFFSET 0 0 0
                }
              }
            }
          }
        }
      }
    }
  }
  JOINT HipLeft
  {
    OFFSET -3.325302 0.739781 1.762717
    CHANNELS 3 Zrotation Xrotation Yrotation
    JOINT KneeLeft
    {
      OFFSET 9.917169 -26.375671 -5.233795
      CHANNELS 3 Zrotation Xrotation Yrotation
      JOINT AnkleLeft
      {
        OFFSET -4.636976 -35.197119 10.295254
        CHANNELS 3 Zrotation Xrotation Yrotation
        JOINT FootLeft
        {
          OFFSET 0.569721 -2.333659 -10.087588
          CHANNELS 3 Zrotation Xrotation Yrotation
          End Site
          {
            OFFSET 0 0 0
          }
        }
      }
    }
  }
  JOINT HipRight
  {
    OFFSET 4.284011 3.496124 -6.523058
    CHANNELS 3 Zrotation Xrotation Yrotation
    JOINT KneeRight
    {
      OFFSET -8.406584 -26.944680 -2.686464
      CHANNELS 3 Zrotation Xrotation Yrotation
      JOINT AnkleRight
      {
        OFFSET -3.656511 -27.046022 -3.122615
        CHANNELS 3 Zrotation Xrotation Yrotation
        JOINT FootRight
        {
          OFFSET 1.122293 11.549534 -0.348131
          CHANNELS 3 Zrotation Xrotation Yrotation
          End Site
          {
            OFFSET 0 0 0
          }
        }
      }
    }
  }
}
MOTION
Frames: 15
Frame Time: 0.033333
-18.894817 111.768930 248.584922 -4.601121 19.415885 -66.439873 62.604389 -24.072332 77.816584 -2.714864 64.650495 6.290902 6.043127 -6.925332 -8.716419 0.000000 0.000000 0.000000 29.991726 -33.475885 10.883743 38.812695 -20.052893 -37.139870 -49.590593 -43.774463 16.864153 118.087137 59.224156 -112.941729 0.000000 0.000000 0.000000 0.000000 0.000000 0.000000 2.196424 -37.643780 -3.777885 27.082835 13.843344 14.544360 -3.431562 1.488357 -1.034890 -23.111900 6.659162 -13.807561 0.000000 0.000000 0.000000 0.000000 0.000000 0.000000 45.311543 -33.110465 66.530556 13.193662 36.984922 5.409160 -0.407271 -41.448706 -7.768422 0.000000 0.000000 0.000000 45.291537 -5.326354 77.117478 -6.243384 24.977364 -5.362986 22.613388 54.106732 -16.650858 0.000000 0.000000 0.000000
-24.626870 113.142224 234.622810 -8.654225 16.546543 -50.731997 53.397128 -35.041408 64.102913 -6.772357 60.212201 9.941762 11.165815 -6.340889 -7.552672 0.000000 0.000000 0.000000 54.072536 -26.860405 8.853131 55.335180 -5.212683 -40.062663 28.304628 -56.695813 67.331197 114.074582 60.553571 -174.334359 0.000000 0.000000 0.000000 0.000000 0.000000 0.000000 7.730615 -36.072401 -2.768295 40.517463 14.884965 14.744548 -5.975448 2.322775 1.062105 -37.361039 8.680210 -15.574902 0.000000 0.000000 0.000000 0.000000 0.000000 0.000000 30.722570 -43.668724 49.338380 18.139465 39.560503 2.497622 -5.830551 -58.006619 -25.614455 0.000000 0.000000 0.000000 44.061787 -14.350309 64.928888 -6.548034 26.739580 -5.200180 122.126021 61.247739 -102.607759 0.000000 0.000000 0.000000
-30.515952 109.970455 225.497991 -11.509368 12.238549 -24.672803 27.689023 -46.755246 31.648216 -6.831965 52.174776 9.579224 15.280335 -6.381519 -5.511112 0.000000 0.000000 0.000000 70.071401 -19.578460 -0.196617 51.210147 19.573155 -40.603381 18.597286 4.268688 39.738691 -12.301831 22.929641 -84.656324 0.000000 0.000000 0.000000 0.000000 0.000000 0.000000 11.137594 -31.327549 -2.213739 50.486725 14.293039 13.719100 -7.411704 3.083492 3.440675 -48.691317 9.107990 -15.138326 0.000000 0.000000 0.000000 0.000000 0.000000 0.000000 -3.897154 -44.979781 11.946343 23.046110 38.006688 -1.303446 1.144085 -57.271847 -17.905852 0.000000 0.000000 0.000000 32.193341 -26.738655 39.543031 -7.058676 24.601273 -4.111586 150.574393 36.682886 -113.670232 0.000000 0.000000 0.000000
-35.845596 102.387826 222.523928 -13.117291 7.730828 -6.307135 4.884469 -41.424937 3.339049 -4.726432 41.243666 7.044165 17.963582 -7.121261 -2.688651 0.000000 0.000000 0.000000 77.972784 -13.951557 -11.316229 35.635491 40.302081 -32.415128 -7.992695 21.989016 32.947673 8.080393 -28.829060 -66.267561 0.000000 0.000000 0.000000 0.000000 0.000000 0.000000 12.640486 -24.564098 -1.871813 57.041711 12.298236 12.968892 -8.401402 3.717986 5.127451 -55.849652 7.596484 -14.031426 0.000000 0.000000 0.000000 0.000000 0.000000 0.000000 -22.033828 -31.880274 -6.965464 26.784674 34.287828 -4.710946 7.213078 -53.349407 -12.501325 0.000000 0.000000 0.000000 18.096857 -25.433301 15.314175 -7.994206 17.376316 -2.142375 159.391831 23.277030 -105.947734 0.000000 0.000000 0.000000
-39.877556 90.494067 227.172655 -13.731178 3.285749 4.622030 -2.996223 -26.809739 -8.871068 -2.073162 26.587474 3.759871 19.593564 -8.630676 0.925807 0.000000 0.000000 0.000000 81.477799 -9.211957 -22.216260 4.120391 49.229389 -8.147386 -15.711821 16.470607 29.775790 39.395005 -36.817493 -44.702101 0.000000 0.000000 0.000000 0.000000 0.000000 0.000000 12.846953 -16.529866 -1.443874 60.699426 9.384460 12.673875 -9.565840 4.134670 6.213008 -59.050493 5.057791 -12.829053 0.000000 0.000000 0.000000 0.000000 0.000000 0.000000 -25.312550 -16.526286 -9.822886 27.663500 27.606662 -7.336098 9.234993 -52.786482 -18.061780 0.000000 0.000000 0.000000 10.151975 -12.884457 -1.194792 -7.224793 5.329652 -0.319673 163.707420 15.712972 -94.243188 0.000000 0.000000 0.000000
-41.855333 74.593365 239.950706 -13.427475 -1.305033 14.294983 -2.384152 -5.679930 -15.669471 -0.048841 5.770162 0.265009 19.602208 -9.598487 5.225308 0.000000 0.000000 0.000000 81.396797 -4.357247 -31.917557 -28.654395 42.503145 17.723183 -11.330534 9.919678 25.819641 40.666742 -37.448483 -35.748754 0.000000 0.000000 0.000000 0.000000 0.000000 0.000000 12.190375 -7.163911 -0.765149 61.676074 5.581826 12.572857 -11.144127 4.229173 7.305191 -58.167720 0.840850 -12.146110 0.000000 0.000000 0.000000 0.000000 0.000000 0.000000 -23.626418 0.765163 -8.926971 27.275289 17.362197 -10.066996 13.847577 -41.132016 -12.352685 0.000000 0.000000 0.000000 11.324091 4.843219 -15.707377 -7.273658 -10.350124 1.974537 164.864539 10.481964 -74.151798 0.000000 0.000000 0.000000
-43.617380 67.053225 252.374523 -12.994925 2.564875 25.456399 9.856494 22.463629 -24.181703 -1.121838 -25.168794 -4.278674 20.565909 -18.349560 11.244286 0.000000 0.000000 0.000000 79.143642 -0.679062 -32.563094 -34.651881 39.023936 25.334507 -5.606482 6.483304 25.682675 39.082890 -38.510419 -35.297187 0.000000 0.000000 0.000000 0.000000 0.000000 0.000000 11.740644 -4.721249 0.759079 59.637503 0.709402 11.598790 -12.711047 3.696840 8.170943 -54.359357 -4.209531 -10.329831 0.000000 0.000000 0.000000 0.000000 0.000000 0.000000 -23.578469 3.705700 -19.236980 26.218759 15.341427 -10.507874 13.412389 -29.809857 12.710654 0.000000 0.000000 0.000000 11.188044 1.160408 -26.653403 -7.496730 -12.476050 2.305003 166.822271 9.913706 -78.331942 0.000000 0.000000 0.000000
-40.904128 77.173958 243.324635 -13.000752 2.323715 17.542605 -1.131073 -0.202761 -17.614956 0.149313 -0.023026 -0.526463 17.355041 -11.141211 6.272964 0.000000 0.000000 0.000000 79.803935 -3.474908 -29.764420 -41.651282 35.992567 26.627952 2.253957 3.526489 25.192925 46.336931 -29.088386 -40.659539 0.000000 0.000000 0.000000 0.000000 0.000000 0.000000 9.941929 -10.242738 -0.191122 61.831354 4.502421 10.509214 -11.650052 3.933151 7.861380 -53.354653 -0.707049 -13.031865 0.000000 0.000000 0.000000 0.000000 0.000000 0.000000 -25.287483 -3.625887 -15.582535 27.412857 20.216173 -9.087426 9.610430 -23.525196 22.169578 0.000000 0.000000 0.000000 8.215471 -3.153462 -17.064425 -5.726709 -5.025980 1.183059 162.670350 20.358350 -104.595258 0.000000 0.000000 0.000000
-40.711681 77.237639 243.304804 -12.992273 2.488398 18.395079 -1.154336 -0.218090 -18.452993 0.120621 -0.043104 -0.531194 17.628805 -11.233652 5.999941 0.000000 0.000000 0.000000 78.896047 -3.317940 -29.162349 -41.911226 35.110099 26.899771 -4.963201 6.985080 23.371975 57.228274 -30.583594 -33.073345 0.000000 0.000000 0.000000 0.000000 0.000000 0.000000 8.295226 -10.845615 -0.082157 64.705589 4.330160 9.768414 -12.350110 4.119180 7.974766 -52.979852 -0.152409 -13.386351 0.000000 0.000000 0.000000 0.000000 0.000000 0.000000 -26.606664 -3.191694 -16.243136 29.624845 19.953796 -9.329090 7.714746 -9.636211 15.345917 0.000000 0.000000 0.000000 6.025158 -4.068140 -17.538191 -2.993813 -3.143148 0.693153 159.900660 14.831802 -77.706789 0.000000 0.000000 0.000000
-40.549254 77.252163 243.336731 -13.040151 2.641587 18.584214 -1.156679 -0.239586 -18.626973 0.048339 -0.044802 -0.538411 18.066786 -11.141907 5.425392 0.000000 0.000000 0.000000 77.795393 -3.285473 -28.201121 -41.438640 36.395801 27.050135 -4.987113 7.051245 23.341359 57.745807 -30.789807 -32.559905 0.000000 0.000000 0.000000 0.000000 0.000000 0.000000 8.195470 -10.578474 0.055510 65.270771 4.016405 10.125087 -12.508936 4.183296 8.073289 -55.627333 1.692519 -11.928347 0.000000 0.000000 0.000000 0.000000 0.000000 0.000000 -26.649645 -2.960282 -16.222910 30.021555 19.393743 -9.394621 9.420466 -5.244847 6.979244 0.000000 0.000000 0.000000 3.667044 -4.693115 -17.404296 0.459696 -1.170597 0.047293 156.747020 10.486206 -49.738574 0.000000 0.000000 0.000000
-40.214076 77.283138 243.405549 -12.959667 2.804259 20.439450 -1.221487 -0.214928 -20.468813 -0.048336 -0.034421 -0.543202 18.812978 -11.365273 4.758983 0.000000 0.000000 0.000000 76.711532 -3.490341 -27.035111 -37.595176 41.534808 25.567769 -4.502045 6.353029 24.494093 52.013977 -32.596488 -34.620167 0.000000 0.000000 0.000000 0.000000 0.000000 0.000000 8.901628 -9.695624 0.231618 64.510381 3.502053 10.836323 -11.968418 4.129680 8.924704 -58.528326 1.936938 -10.907092 0.000000 0.000000 0.000000 0.000000 0.000000 0.000000 -27.257306 -1.601076 -17.377203 30.812587 18.783529 -9.666056 14.789821 -14.728026 -14.974382 0.000000 0.000000 0.000000 1.294498 -5.369106 -18.997184 3.363943 0.515050 -0.614564 153.402502 8.015044 -30.573865 0.000000 0.000000 0.000000
-39.841701 77.319958 243.421190 -12.855173 3.048337 23.131903 -1.305806 -0.213496 -23.145050 -0.109846 -0.074180 -0.551386 19.891097 -12.055854 4.147229 0.000000 0.000000 0.000000 75.987817 -3.788543 -26.103682 -31.626276 46.326481 22.244141 -3.861957 5.439894 25.968539 43.924317 -33.331621 -38.897320 0.000000 0.000000 0.000000 0.000000 0.000000 0.000000 9.903317 -8.731753 0.355480 63.365076 3.075448 11.924115 -11.546968 4.067175 7.956411 -59.050703 0.633790 -10.362089 0.000000 0.000000 0.000000 0.000000 0.000000 0.000000 -27.862603 0.179957 -19.229544 31.415785 18.054980 -9.951814 16.015067 -15.384095 -20.324802 0.000000 0.000000 0.000000 -0.783606 -6.224150 -21.467863 5.323594 2.079574 -1.237337 149.856323 4.784860 -10.796016 0.000000 0.000000 0.000000
-39.453458 77.378875 243.541401 -12.664969 3.076690 24.632293 -1.349544 -0.162759 -24.643846 -0.170132 -0.089891 -0.552562 20.467180 -12.384207 3.697363 0.000000 0.000000 0.000000 75.689157 -4.122768 -25.572461 -27.107839 47.533082 19.092567 -3.562698 4.962454 26.614934 39.636672 -32.191662 -42.091931 0.000000 0.000000 0.000000 0.000000 0.000000 0.000000 10.442153 -8.611716 0.288147 62.544556 3.160293 12.169603 -11.111374 3.995932 7.377358 -58.952656 0.780643 -10.154734 0.000000 0.000000 0.000000 0.000000 0.000000 0.000000 -28.371844 1.646737 -19.898347 31.886834 17.365485 -10.240013 15.975760 -14.767055 -18.646310 0.000000 0.000000 0.000000 -2.209492 -6.207672 -22.882996 6.675026 2.803808 -1.589576 150.208103 4.870192 -10.096209 0.000000 0.000000 0.000000
-39.015562 77.438785 243.697076 -12.410469 3.045428 26.022408 -1.390045 -0.093374 -26.037165 -0.230154 -0.106680 -0.551544 21.020915 -12.764499 3.287808 0.000000 0.000000 0.000000 75.612840 -4.519686 -25.190327 -21.921990 47.492298 15.220277 -3.297266 4.486624 27.170101 35.506191 -29.930504 -45.695192 0.000000 0.000000 0.000000 0.000000 0.000000 0.000000 11.024172 -8.682048 0.145944 61.523188 3.423419 12.264680 -10.592753 3.896244 6.560055 -58.194789 0.963573 -10.145377 0.000000 0.000000 0.000000 0.000000 0.000000 0.000000 -28.860473 3.273018 -20.307495 32.228328 16.548177 -10.574717 15.187313 -14.194125 -13.109303 0.000000 0.000000 0.000000 -3.277006 -5.904101 -24.234500 7.475166 3.127372 -1.769965 152.713675 6.382687 -18.270456 0.000000 0.000000 0.000000
-38.528015 77.499687 243.888215 -12.090661 2.953901 27.305370 -1.426660 -0.005009 -27.327776 -0.289836 -0.124607 -0.548224 21.550668 -13.195397 2.918734 0.000000 0.000000 0.000000 75.758034 -4.979144 -24.952246 -16.512119 46.043192 11.061997 -3.090533 4.037836 27.601616 31.848803 -26.513145 -49.460234 0.000000 0.000000 0.000000 0.000000 0.000000 0.000000 11.648471 -8.936206 -0.066424 60.311550 3.864300 12.221483 -10.002494 3.768065 5.476232 -56.705532 1.207474 -10.338379 0.000000 0.000000 0.000000 0.000000 0.000000 0.000000 -29.336892 5.092644 -20.425978 32.469572 15.558554 -10.971519 13.551964 -13.881060 -3.499692 0.000000 0.000000 0.000000 -3.982126 -5.345219 -25.519328 7.729143 3.063868 -1.770341 156.748849 8.868024 -37.064898 0.000000 0.000000 0.000000
